<?xml version="1.0" encoding="UTF-8"?>
<svg width="265px" height="36px" viewBox="0 0 265 36" version="1.1" xmlns="http://www.w3.org/2000/svg" xmlns:xlink="http://www.w3.org/1999/xlink">
    <title>img_logo</title>
    <g id="Symbols" stroke="none" stroke-width="1" fill="none" fill-rule="evenodd">
        <g id="Element/Logo/On-light" fill-rule="nonzero">
            <g id="Group-22">
                <path d="M260.199446,22.5152082 C260.420083,21.8335592 260.110133,21.3781959 259.222148,21.1184082 C258.384254,20.8697878 257.404019,20.6211673 256.365025,20.3530041 C253.530671,19.6518122 252.430127,18.3696245 253.03622,16.5120245 C254.066693,13.5591429 256.493559,12.1120898 260.35589,12.1345714 C264.039448,12.1345714 265.477705,13.5788327 264.715316,16.4923347 L262.919662,16.4923347 C262.252167,16.4923347 261.88625,16.2130041 261.760654,15.6543429 C261.481405,14.8498531 260.677004,14.4559102 259.319834,14.4559102 C257.644047,14.4754531 256.644421,15.0341143 256.228265,16.1069143 C255.949016,16.9953061 256.719925,17.6349306 258.635593,18.0622286 C259.790928,18.3205469 260.930399,18.6451347 262.048276,19.0345224 C263.62344,19.570849 264.075732,20.7272571 263.405446,22.5040408 C262.327525,25.2500327 259.8112,26.6133306 255.865285,26.6133306 C251.720915,26.6133306 250.131796,25.0628327 251.033883,22.0068 L254.142198,22.0068 C253.773489,23.4927918 254.589055,24.2415918 256.638839,24.2415918 C258.688623,24.2415918 259.844839,23.6716163 260.199446,22.5152082" id="Fill-9" fill="#C1272C"></path>
                <path d="M241.918853,26.6269078 C237.106987,26.6269078 235.640967,23.777471 237.067913,19.3973731 C238.539662,14.8747445 241.960718,12.1341894 246.909343,12.1341894 C248.819576,12.1341894 250.227131,12.5476751 251.120845,13.4135853 C251.936117,14.3019771 252.159692,15.5199527 251.824623,17.0451771 L249.891915,17.0451771 C249.202093,17.0451771 248.788875,16.7659935 248.671652,16.2071853 C248.470552,15.1959527 247.604748,14.679022 246.085552,14.679022 C243.114144,14.679022 241.192747,16.5591037 240.271123,19.3889976 C239.377409,22.1377812 240.011411,24.0764914 242.935371,24.0764914 C244.744393,24.1286547 246.42444,23.1424016 247.261159,21.5370955 L250.369473,21.5370955 C249.006721,24.7888506 245.875931,26.6269078 241.918853,26.6269078" id="Fill-8" fill="#C1272C"></path>
                <path d="M233.960479,14.0086873 C234.284532,13.0169976 234.979789,12.5000669 236.063293,12.5000669 L237.652558,12.5000669 L233.080868,26.5459445 L229.880449,26.5459445 L233.960479,14.0086873 Z" id="Fill-7" fill="#C1272C"></path>
                <path d="M222.270366,12.4862106 L233.111569,12.4862106 L232.298941,15.0003331 L227.67143,15.0003331 L223.912514,26.5460473 L220.714739,26.5460473 L224.473803,15.0003331 L219.846292,15.0003331 L220.17857,14.0086433 C220.512611,13.1315657 221.333024,12.5342596 222.270366,12.4862106" id="Fill-6" fill="#C1272C"></path>
                <path d="M209.583124,21.612622 L207.852544,12.5000669 L211.332212,12.5000669 L212.031876,18.8750057 L215.968243,13.6188588 C216.495599,12.9147282 217.32365,12.5000669 218.203262,12.5000669 L220.28551,12.5000669 L212.746084,21.6517078 L211.267137,26.5459445 L208.061136,26.5459445 L209.583124,21.612622 Z" id="Fill-5" fill="#C1272C"></path>
                <path d="M201.908847,12.4862106 L203.497819,12.4862106 L199.766813,23.9396473 L207.410388,23.9396473 L206.572641,26.5209208 L195.725856,26.5209208 L199.806034,13.9835167 C200.149476,13.1126106 200.973708,12.5258841 201.908847,12.4862106" id="Fill-4" fill="#C1272C"></path>
                <path d="M190.997869,12.4196327 L193.595133,12.4196327 L195.11712,26.4850531 L191.643035,26.4850531 L191.458681,23.5825714 L185.244842,23.5825714 L183.340191,26.4850531 L179.855089,26.4850531 L189.137874,13.3554857 C189.562256,12.7512735 190.259864,12.3981796 190.997869,12.4141959 L190.997869,12.4196327 Z M190.883437,15.2383592 L186.836752,21.2024571 L191.305028,21.2024571 L190.883437,15.2383592 Z" id="Fill-3" fill="#C1272C"></path>
                <path d="M172.24765,12.4862106 L173.973528,12.4862106 L177.21023,22.1321535 L180.352037,12.4862106 L183.505008,12.4862106 L178.930527,26.5460473 L175.579393,26.5460473 L172.359437,16.8999576 L169.21763,26.5460473 L166.064659,26.5460473 L170.144836,14.0086433 C170.480493,13.1278922 171.306341,12.5299984 172.24765,12.4862106" id="Fill-10" fill="#C1272C"></path>
                <path d="M161.116034,12.4196327 L163.713298,12.4196327 L165.235285,26.4850531 L161.7612,26.4850531 L161.576846,23.5825714 L155.363007,23.5825714 L153.458503,26.4850531 L149.973254,26.4850531 L159.256039,13.3554857 C159.680568,12.7512735 160.378029,12.3981796 161.116034,12.4141959 L161.116034,12.4196327 Z M161.001602,15.2383592 L156.954917,21.2024571 L161.423193,21.2024571 L161.001602,15.2383592 Z" id="Fill-1" fill="#C1272C"></path>
                <path d="M141.528068,12.4862106 L143.253947,12.4862106 L146.490649,22.1321535 L149.632456,12.4862106 L152.785427,12.4862106 L148.210945,26.5460473 L144.859812,26.5460473 L141.639709,16.8999576 L138.497902,26.5460473 L135.344931,26.5460473 L139.425255,14.0086433 C139.760912,13.1278922 140.58676,12.5299984 141.528068,12.4862106" id="Fill-11" fill-opacity="0.87" fill="#000000"></path>
                <path d="M124.316436,19.3973584 C123.422869,22.146142 124.106962,24.2106318 127.030923,24.2106318 C129.954884,24.2106318 131.979548,22.2272522 132.89559,19.3973584 C133.797677,16.6290318 133.060261,14.6484441 130.139238,14.6484441 C127.218068,14.6484441 125.20163,16.6709094 124.316436,19.3973584 M121.116017,19.3973584 C122.512409,15.1010155 126.307608,12.1341747 130.957447,12.1341747 C135.607287,12.1341747 137.486671,15.1289339 136.101591,19.3973584 C134.705346,23.7161829 131.007686,26.6268931 126.243415,26.6268931 C121.479144,26.6268931 119.716835,23.6937012 121.116017,19.3973584" id="Fill-12" fill-opacity="0.87" fill="#000000"></path>
                <path d="M118.331945,14.0086873 C118.655851,13.0169976 119.351255,12.5000669 120.434759,12.5000669 L122.023877,12.5000669 L117.452187,26.5459445 L114.251768,26.5459445 L118.331945,14.0086873 Z" id="Fill-13" fill-opacity="0.87" fill="#000000"></path>
                <path d="M110.790477,22.5152082 C111.011115,21.8335592 110.701165,21.3781959 109.813033,21.1184082 C108.975286,20.8697878 107.99505,20.6211673 106.956057,20.3530041 C104.121555,19.6518122 103.021159,18.3696245 103.627251,16.5120245 C104.657725,13.5591429 107.08459,12.1120898 110.946774,12.1345714 C114.63048,12.1345714 116.068737,13.5788327 115.306201,16.4923347 L113.510547,16.4923347 C112.843052,16.4923347 112.477282,16.2130041 112.351539,15.6543429 C112.07229,14.8498531 111.268035,14.4559102 109.910718,14.4559102 C108.235078,14.4754531 107.235305,15.0341143 106.819297,16.1069143 C106.539901,16.9953061 107.31081,17.6349306 109.226625,18.0622286 C110.381813,18.3205469 111.521284,18.6451347 112.639161,19.0345224 C114.214324,19.570849 114.666763,20.7272571 113.996478,22.5040408 C112.918557,25.2500327 110.402232,26.6133306 106.45617,26.6133306 C102.311799,26.6133306 100.722828,25.0628327 101.624768,22.0068 L104.733083,22.0068 C104.364521,23.4927918 105.17994,24.2415918 107.229723,24.2415918 C109.279654,24.2415918 110.435724,23.6716163 110.790477,22.5152082" id="Fill-14" fill-opacity="0.87" fill="#000000"></path>
                <path d="M99.562204,14.0086873 C99.8862561,13.0169976 100.581514,12.5000669 101.665164,12.5000669 L103.254136,12.5000669 L98.682592,26.5459445 L95.4793825,26.5459445 L99.562204,14.0086873 Z" id="Fill-15" fill-opacity="0.87" fill="#000000"></path>
                <path d="M87.2036705,26.6269078 C82.3918052,26.6269078 80.9256383,23.777471 82.3527309,19.3973731 C83.8244798,14.8747445 87.2455358,12.1341894 92.194161,12.1341894 C94.1043938,12.1341894 95.5119493,12.5476751 96.4056632,13.4135853 C97.2210818,14.3019771 97.4445103,15.5199527 97.1092941,17.0451771 L95.1767331,17.0451771 C94.4870574,17.0451771 94.0736926,16.7659935 93.9563229,16.2071853 C93.7553695,15.1959527 92.8895657,14.679022 91.3703695,14.679022 C88.3989615,14.679022 86.4775646,16.5591037 85.5559404,19.3889976 C84.6623733,22.1377812 85.2962287,24.0764914 88.2201893,24.0764914 C90.0293578,24.1286547 91.709258,23.1424016 92.5461233,21.5370955 L95.6542913,21.5370955 C94.2915391,24.7888506 91.1608961,26.6269078 87.2036705,26.6269078" id="Fill-16" fill-opacity="0.87" fill="#000000"></path>
                <path d="M72.034668,14.0086873 C72.3502001,13.0365404 73.0483958,12.5225486 74.1374812,12.5000669 L83.8505244,12.5000669 L83.057434,14.9361649 L74.8860621,14.9361649 L73.9028886,17.9531118 L80.0021486,17.9531118 L79.7061535,18.8805894 C79.4269047,19.8525894 78.7063808,20.3247037 77.5780743,20.3247037 L73.1321264,20.3247037 L71.9481463,23.9562955 L80.1195183,23.9562955 L79.2816247,26.537569 L67.9544906,26.537569 L72.034668,14.0086873 Z" id="Fill-17" fill-opacity="0.87" fill="#000000"></path>
                <path d="M64.5614182,14.8495739 L60.6014016,14.8495739 L59.3977375,18.545231 L63.1733999,18.545231 C64.6927431,18.545231 65.706324,18.050929 66.15039,16.687631 C66.5665457,15.4082351 65.9885108,14.8495739 64.5614182,14.8495739 M66.0582863,19.7242678 C66.5749188,19.86048 67.0063517,20.215631 67.2396222,20.6964147 C67.3596361,21.1711739 67.2703234,21.8723657 67.0441039,22.7830922 L66.2872968,25.529231 C66.170074,25.9621127 66.2510136,26.2721535 66.4911882,26.4593535 L62.9696555,26.4593535 C62.9067841,26.1825208 62.9144227,25.8943739 62.9918368,25.6213616 C62.9918368,25.4144718 63.2068922,24.610129 63.62863,23.246831 C64.0643229,21.5539494 63.9078789,21.0118922 62.0060191,21.0118922 L58.5990651,21.0118922 L56.8228013,26.4649371 L53.6251738,26.4649371 L57.7053512,13.9220963 C58.0454149,13.0466351 58.8703817,12.4550596 59.8083113,12.4136229 L65.7455452,12.4136229 C68.99062,12.4136229 70.4232946,13.5309453 69.4821333,16.4196147 C68.9039515,18.1961045 67.6753151,19.3526596 66.0582863,19.7242678" id="Fill-18" fill-opacity="0.87" fill="#000000"></path>
                <path d="M49.3077156,18.9196604 C50.9107894,18.9392033 51.9384723,18.2575543 52.3797472,16.8971951 C52.8210222,15.5368359 52.2874967,14.8522482 50.7906286,14.8522482 L47.5232256,14.8522482 L46.1994008,18.9225992 L49.3077156,18.9196604 Z M49.2853875,21.4618482 L45.3337439,21.4618482 L43.705551,26.4593829 L40.4995504,26.4593829 L44.5797278,13.9219788 C44.9197916,13.0466645 45.7447583,12.455089 46.682541,12.4136522 L51.9887106,12.4136522 C55.303561,12.4136522 56.5128071,14.003089 55.5576907,16.9362808 C54.6669146,19.7073992 52.4160305,21.4618482 49.2853875,21.4618482 L49.2853875,21.4618482 Z" id="Fill-19" fill-opacity="0.87" fill="#000000"></path>
                <path d="M24.0701821,22.037231 C23.8551267,21.8250514 23.7014737,21.3110596 23.7014737,20.707582 C23.6709193,20.2478106 23.7916677,19.7906841 24.0450629,19.4058514 C24.4006976,19.0783249 24.60312,18.6169371 24.60312,18.1333616 C24.60312,17.6497861 24.4006976,17.1883984 24.0450629,16.8608718 C23.791227,16.4761861 23.6706256,16.0189127 23.7014737,15.5591412 C23.7014737,14.9558106 23.8551267,14.4418188 24.0701821,14.2293453 C24.7495751,13.5475494 24.7476655,12.4437453 24.0659221,11.7641535 C23.3843257,11.0845616 22.2808445,11.0864718 21.6014515,11.7682678 C21.3919781,11.9833861 20.8753456,12.1370841 20.2721915,12.1370841 C19.6688905,12.1370841 19.1550491,11.9863249 18.9455757,11.7712065 C18.6156477,11.4281045 18.1586549,11.2366433 17.6828595,11.2419331 C17.2069171,11.2472229 16.7544781,11.4488229 16.4321887,11.798978 C16.0476156,12.0530351 15.5904759,12.1736718 15.130839,12.1426678 C14.527538,12.1426678 14.0136965,11.9889698 13.8014321,11.7738514 C13.3664737,11.3095249 12.7132281,11.1190922 12.0970003,11.2770514 C11.4807725,11.4351576 10.9995419,11.916382 10.8416289,12.5327902 C10.6837159,13.1493453 10.8740928,13.802782 11.3382835,14.2378678 L11.3243284,14.2378678 C11.5393839,14.4500473 11.69289,14.9640392 11.69289,15.5675167 C11.723885,16.0274351 11.6032835,16.4847086 11.3494476,16.8692473 C10.9919033,17.1969208 10.7883057,17.6594841 10.7883057,18.144529 C10.7883057,18.6295739 10.9919033,19.0922841 11.3494476,19.4198106 L11.3327015,19.4198106 C11.5860967,19.8046433 11.7066982,20.2617698 11.6761438,20.7215412 C11.6761438,21.3248718 11.5226377,21.8388637 11.3075823,22.0513371 C10.7930064,22.5446106 10.6300989,23.3013453 10.8958334,23.9627167 C11.1617148,24.6240882 11.802768,25.0577045 12.5153595,25.0577045 C13.2280978,25.0577045 13.8691511,24.6240882 14.1348855,23.9627167 C14.40062,23.3013453 14.2377126,22.5446106 13.7231366,22.0513371 C13.5082281,21.8388637 13.3545751,21.3248718 13.3545751,20.7215412 C13.3240208,20.2617698 13.4447691,19.8046433 13.6981644,19.4198106 C14.0557087,19.0922841 14.2593063,18.6295739 14.2593063,18.144529 C14.2593063,17.6594841 14.0557087,17.1969208 13.6981644,16.8692473 C13.4443284,16.4847086 13.3235801,16.0274351 13.3545751,15.5675167 C13.3545751,14.9640392 13.5082281,14.4500473 13.7231366,14.2378678 C13.7400297,14.2211167 13.7539848,14.1986351 13.7735219,14.1818841 L13.7735219,14.2015739 C13.9857863,13.9864555 14.4996278,13.8327576 15.1027819,13.8327576 C15.5624188,13.8017535 16.0197054,13.9223902 16.4041317,14.1763004 C16.7315624,14.5321861 17.192962,14.7346678 17.6762492,14.7346678 C18.1596832,14.7346678 18.6210829,14.5321861 18.9483667,14.1763004 C19.3329399,13.9223902 19.7900795,13.8017535 20.2497165,13.8327576 C20.6939293,13.8074841 21.1349105,13.9207739 21.511992,14.1567576 C21.528885,14.1666024 21.5447497,14.1779167 21.5595862,14.1904065 L21.5763323,14.1904065 C21.5930784,14.2071576 21.6098246,14.218178 21.6265707,14.234929 C21.8416261,14.4474024 21.9952791,14.9613943 21.9952791,15.5647249 C21.9952791,16.1682024 21.8444171,16.6821943 21.6293617,16.891582 C21.2856256,17.2213127 21.0937797,17.6785861 21.0990679,18.1548147 C21.1043562,18.6308963 21.3064848,19.0837616 21.6572719,19.4058514 C21.9106671,19.7906841 22.0314155,20.2478106 22.0008611,20.707582 C22.0008611,21.3110596 21.8472081,21.8250514 21.6321527,22.037231 C21.1168423,22.5302106 20.9532004,23.2872392 21.2186411,23.9491984 C21.4842287,24.6111576 22.1255757,25.0450678 22.8386078,25.0450678 C23.55164,25.0450678 24.192987,24.6111576 24.4585746,23.9491984 C24.7240152,23.2872392 24.5602264,22.5302106 24.0450629,22.037231 L24.0701821,22.037231 Z M17.7056283,16.3971278 C16.9881893,16.3953698 16.3431699,16.833982 16.0812547,17.5021127 C15.8193395,18.1700963 15.9941455,18.9305045 16.5215014,19.4170188 L16.5047553,19.4170188 C16.7581505,19.8017045 16.8787519,20.258831 16.8481976,20.7187494 C16.8481976,21.3222269 16.6946915,21.8362188 16.4796361,22.0483984 C15.965207,22.5418188 15.8021527,23.2984065 16.0678872,23.9599249 C16.3336217,24.6214433 16.9748218,25.0547657 17.6874132,25.0547657 C18.4001516,25.0547657 19.0412048,24.6214433 19.3069393,23.9599249 C19.5728207,23.2984065 19.4097664,22.5418188 18.8953373,22.0483984 C18.6802819,21.8362188 18.5266289,21.3222269 18.5266289,20.7187494 C18.4960746,20.258831 18.616676,19.8017045 18.8702181,19.4170188 C19.397574,18.9305045 19.57238,18.1700963 19.3104648,17.5021127 C19.0484027,16.833982 18.4033833,16.3953698 17.6860912,16.3971278 L17.7056283,16.3971278 Z" id="Fill-20" fill-opacity="0.87" fill="#000000"></path>
                <path d="M5.10219013,23.97312 C5.52260588,23.9457894 5.94037749,24.0567282 6.29189911,24.2887445 C6.73699335,24.7720261 7.4326918,24.9324833 8.04451275,24.6935608 C8.6563337,24.4544914 9.05897506,23.8648261 9.05897506,23.2077159 C9.05897506,22.5507527 8.6563337,21.9610873 8.04451275,21.722018 C7.4326918,21.4829486 6.73699335,21.6435527 6.29189911,22.1266873 C5.94037749,22.3589976 5.52260588,22.4699363 5.10219013,22.4423118 C4.67237306,22.4681731 4.24681596,22.3437159 3.89852605,22.0903935 C3.49647228,21.6876343 2.9102112,21.5301159 2.36038027,21.6770547 C1.81069623,21.8239935 1.38117295,22.2532016 1.23368958,22.8028996 C1.08605931,23.3524506 1.24279712,23.9393241 1.64485089,24.3419363 C1.8431602,24.5345731 1.9827112,25.0040424 1.9827112,25.55712 C2.0104745,25.9797159 1.89853991,26.3999608 1.66438803,26.7527608 C1.18154157,27.1979853 1.02083758,27.8940343 1.25983703,28.5058873 C1.49868958,29.1178873 2.08832927,29.5206465 2.74524723,29.5206465 C3.40201829,29.5206465 3.99151109,29.1178873 4.23051053,28.5058873 C4.46950998,27.8940343 4.30895288,27.1979853 3.82595953,26.7527608 C3.59371729,26.4011363 3.48295787,25.9832424 3.51042738,25.5627037 C3.51042738,25.0040424 3.64997838,24.5401567 3.84828769,24.34752 L3.82875055,24.34752 C3.84549667,24.330769 3.86503381,24.3194547 3.88177993,24.3028506 C4.23756153,24.0536424 4.66943514,23.9369731 5.10219013,23.97312 L5.10219013,23.97312 Z M32.610189,21.9562384 C31.9542993,21.9556506 31.3652472,22.3573812 31.1262478,22.9683527 C30.8872483,23.5791771 31.0473647,24.2743445 31.5294767,24.7189812 C31.7614252,25.0707527 31.8723315,25.4884996 31.8450089,25.9091853 C31.8450089,26.4678465 31.7054579,26.9315853 31.5071486,27.124222 C31.4904024,27.14112 31.4790915,27.1605159 31.4624922,27.1744751 L31.4624922,27.1549322 C31.269765,27.3532996 30.7977888,27.4930384 30.2476641,27.4930384 C29.8272483,27.520369 29.4094767,27.4094302 29.0579551,27.1774139 C28.612714,26.6942792 27.9170155,26.5336751 27.3051946,26.7727445 C26.6935205,27.0116669 26.2907323,27.6013322 26.2907323,28.2584424 C26.2907323,28.9154057 26.6935205,29.505071 27.3051946,29.7441404 C27.9170155,29.9832098 28.612714,29.8226057 29.0579551,29.339471 C29.4094767,29.1073078 29.8272483,28.9966629 30.2476641,29.0238465 C30.6795377,28.9910792 31.1093548,29.1106873 31.4624922,29.3619527 C31.864546,29.7645649 32.4508071,29.9220833 33.0004911,29.7751445 C33.5501752,29.6280588 33.9796984,29.1989976 34.1273287,28.6492996 C34.274959,28.0997486 34.1182212,27.513022 33.7161674,27.1104098 C33.4651225,26.757169 33.3455493,26.3272261 33.3781602,25.8950792 C33.3511314,25.4746873 33.4618908,25.0567935 33.6938392,24.705022 C34.176245,24.2599445 34.3362145,23.5643363 34.0964806,22.953071 C33.8567467,22.3418057 33.2665194,21.9405159 32.610189,21.9422734 L32.610189,21.9562384 Z M7.44811585,6.06950654 C6.73067683,6.06774857 6.08565743,6.50636082 5.82374224,7.17449143 C5.56168016,7.84262204 5.73648614,8.60288327 6.26398891,9.08939755 C6.51767794,9.47393633 6.63842627,9.9312098 6.60743126,10.3911282 C6.60743126,10.9946057 6.45392517,11.5085976 6.23886973,11.7207771 C6.22212361,11.7375282 6.20537749,11.7600098 6.18863137,11.7795527 L6.18863137,11.7544261 C5.97636696,11.9695445 5.4625255,12.1230955 4.8592245,12.1230955 C4.39958758,12.1536588 3.94244789,12.033022 3.55787472,11.7795527 C3.0706214,11.2505731 2.30911364,11.0746873 1.63941574,11.3362384 C0.969570953,11.5977894 0.528736696,12.2434384 0.528736696,12.9625567 C0.528736696,13.681822 0.969570953,14.3273241 1.63941574,14.589022 C2.30911364,14.8505731 3.0706214,14.6745404 3.55787472,14.1455608 C3.94244789,13.8922384 4.39958758,13.7714547 4.8592245,13.802018 C5.4625255,13.802018 5.97636696,13.955569 6.18863137,14.1706873 C6.6094878,14.6821812 7.28359257,14.9105241 7.92861197,14.7606465 C8.57348448,14.610622 9.07763082,14.1079445 9.22981486,13.463471 C9.38199889,12.8188506 9.15577938,12.14352 8.646051,11.7207771 L8.66015299,11.7207771 C8.44509756,11.5085976 8.29144457,10.9946057 8.29144457,10.3911282 C8.26368126,9.93003429 8.38839579,9.47261388 8.646051,9.08939755 C9.17355377,8.60288327 9.34835976,7.84262204 9.08644457,7.17449143 C8.82438248,6.50636082 8.17936308,6.06774857 7.46192406,6.06950654 L7.44811585,6.06950654 Z M34.3388586,16.8385078 C34.0854634,16.4536751 33.964862,15.9965486 33.9954163,15.5367771 C33.9954163,14.9332996 34.1489224,14.4193078 34.3639778,14.2071282 C34.8792882,13.7141486 35.0430771,12.95712 34.7774895,12.2951608 C34.5119019,11.6333486 33.8705549,11.1992914 33.1575227,11.1992914 C32.4444906,11.1992914 31.8032905,11.6333486 31.5377029,12.2951608 C31.2721153,12.95712 31.4359041,13.7141486 31.9510676,14.2071282 L31.9372594,14.2071282 C32.1551059,14.4193078 32.305821,14.9332996 32.305821,15.5367771 C32.3363753,15.9965486 32.2157738,16.4536751 31.9623786,16.8385078 C31.4335538,17.3259037 31.2575726,18.0876343 31.5190471,18.7576751 C31.7806685,19.427422 32.4259817,19.8685322 33.1450366,19.8685322 C33.8639446,19.8685322 34.5094047,19.427422 34.7708792,18.7576751 C35.0323537,18.0876343 34.8565194,17.3259037 34.3276946,16.8385078 L34.3388586,16.8385078 Z M11.5225643,4.28170776 C11.9733875,4.75132408 12.6642384,4.89973224 13.26798,4.65669551 C13.8718686,4.41365878 14.267459,3.82781388 14.267459,3.1768751 C14.267459,2.52578939 13.8718686,1.94023837 13.26798,1.69705469 C12.6642384,1.45401796 11.9733875,1.60257306 11.5225643,2.07204245 C11.3299839,2.2704098 10.8607988,2.41014857 10.3077361,2.41014857 C9.88746729,2.43747918 9.46954878,2.32683429 9.11802716,2.09452408 C8.67263914,1.61212408 7.97708758,1.45210776 7.36585421,1.69147102 C6.75462084,1.93068735 6.35227328,2.52020571 6.35227328,3.1768751 C6.35227328,3.83354449 6.75462084,4.42306286 7.36585421,4.66227918 C7.97708758,4.90164245 8.67263914,4.74162612 9.11802716,4.25937306 C9.47424945,4.02632816 9.89730931,3.91729959 10.3216912,3.94933224 C10.880189,3.94933224 11.343939,4.08907102 11.5365194,4.28729143 L11.5225643,4.28170776 Z M7.4256408,16.4056261 C6.94000333,16.4043037 6.47595953,16.6070792 6.14661918,16.9642873 L6.14661918,16.9224098 C5.88969845,17.1373812 5.26127827,17.2910792 4.52679933,17.2910792 C3.74487306,17.2910792 3.0914806,17.1179853 2.86805211,16.8803853 C2.54870067,16.574018 2.12373115,16.4020996 1.68113415,16.4000424 C0.745114191,16.4375118 0.00549390244,17.207471 0.00549390244,18.1444996 C0.00549390244,19.0816751 0.745114191,19.8516343 1.68113415,19.8891037 C2.11109812,19.8864588 2.52446286,19.7229159 2.84014191,19.4309486 C3.03286918,19.1765976 3.71138082,18.9867527 4.51578215,18.9867527 C5.25026109,18.9867527 5.87853437,19.1403037 6.1354551,19.355422 L6.1354551,19.3220669 C6.67632539,19.9086465 7.54624224,20.0530873 8.24752273,19.6725159 C8.94880322,19.2922384 9.30208758,18.4840751 9.10539412,17.7105894 C8.90884756,16.9372506 8.21226774,16.396369 7.41447672,16.3971029 L7.4256408,16.4056261 Z M26.1953969,7.80147918 C26.1953969,8.27682612 26.3901807,8.73116082 26.7343575,9.05868735 L26.7204024,9.05868735 C26.9354579,9.27086694 27.0891109,9.78485878 27.0891109,10.3883363 C27.1196652,10.8481078 26.9989169,11.3052343 26.7455216,11.6900669 C26.2168437,12.1774629 26.0408625,12.9391935 26.302337,13.6092343 C26.5639584,14.2789812 27.2092716,14.7200914 27.9283265,14.7200914 C28.6472345,14.7200914 29.2926946,14.2789812 29.5541691,13.6092343 C29.8156436,12.9391935 29.6398093,12.1774629 29.1109845,11.6900669 C28.8575892,11.3052343 28.7369878,10.8481078 28.7675421,10.3883363 C28.7675421,9.78485878 28.9210482,9.27086694 29.1361037,9.05868735 C29.7067938,8.50854857 29.8344462,7.64249143 29.447082,6.95114449 C29.0594241,6.25965061 28.2542882,5.91669551 27.4874922,6.11667918 C26.7205493,6.31651592 26.1851142,7.00889143 26.1842328,7.80147918 L26.1953969,7.80147918 Z M27.9408126,25.0878137 C28.6595737,25.0908833 29.306209,24.6518302 29.568418,23.9823771 C29.8306269,23.313071 29.6544989,22.5513404 29.1249396,22.0652669 C28.8715443,21.6802873 28.7509429,21.2231608 28.7814972,20.7633894 C28.7814972,20.1600588 28.9350033,19.6460669 29.1500588,19.4337404 C29.6653692,18.9407608 29.8290111,18.1838792 29.5634235,17.52192 C29.2979828,16.8599608 28.6566358,16.4260506 27.9436037,16.4260506 C27.2305715,16.4260506 26.5892245,16.8599608 26.3237838,17.52192 C26.0581962,18.1838792 26.2218381,18.9407608 26.7371486,19.4337404 L26.7231935,19.4337404 C26.9382489,19.6460669 27.0919019,20.1600588 27.0919019,20.7633894 C27.1224562,21.2231608 27.0018548,21.6802873 26.7483126,22.0652669 L26.7622677,22.0652669 C26.2331491,22.5508996 26.0567273,23.3120424 26.3183487,23.9812016 C26.5798232,24.6502139 27.2254302,25.0898547 27.9436037,25.0878137 L27.9408126,25.0878137 Z M12.5335011,26.6913404 C11.8225255,26.6916343 11.1829412,27.1239282 10.9176475,27.7839771 C10.6522068,28.4438792 10.8143797,29.1987037 11.327046,29.6915363 L11.3130909,29.6915363 C11.5309374,29.9037159 11.6817993,30.4177078 11.6817993,31.0211853 C11.7123537,31.4811037 11.5917522,31.9382302 11.338357,32.3229159 C10.8095322,32.8103118 10.633551,33.5720424 10.8951724,34.2420833 C11.1566469,34.9119771 11.8019601,35.3529404 12.521015,35.3529404 C13.2399229,35.3529404 13.885383,34.9119771 14.1468575,34.2420833 C14.408332,33.5720424 14.2324978,32.8103118 13.7036729,32.3229159 C13.4549784,31.9395527 13.3374618,31.4856588 13.3686037,31.0295608 C13.3686037,30.4262302 13.5221098,29.9122384 13.7371652,29.6999118 C14.2499784,29.2070792 14.4120044,28.4521078 14.1467106,27.7922057 C13.8814169,27.1324506 13.2418326,26.7000098 12.5307101,26.6997159 L12.5335011,26.6913404 Z M27.0556186,5.05005061 C27.7264917,5.05005061 28.2702999,4.50593633 28.2702999,3.83472 C28.2702999,3.16365061 27.7264917,2.61968327 27.0556186,2.61968327 C26.3845987,2.61968327 25.8407905,3.16365061 25.8407905,3.83472 C25.8407905,4.50593633 26.3845987,5.05005061 27.0556186,5.05005061 L27.0556186,5.05005061 Z M27.5248038,31.401169 C27.0332905,31.401169 26.5903997,31.6971037 26.4023731,32.1512914 C26.2143465,32.6053322 26.3183487,33.1281404 26.6657572,33.4755037 C27.0131657,33.8230139 27.5356741,33.9270465 27.989582,33.7389649 C28.44349,33.5508833 28.7396339,33.1078629 28.7396339,32.6162057 C28.7402195,32.2935282 28.6125671,31.9837812 28.3847317,31.7552914 C28.1567494,31.5266547 27.8473869,31.3983771 27.5248038,31.3983771 L27.5248038,31.401169 Z M7.89482594,31.401169 C7.22395288,31.401169 6.68014468,31.9451363 6.68014468,32.6162057 C6.68014468,33.287422 7.22395288,33.8315363 7.89482594,33.8315363 C8.5658459,33.8315363 9.10965863,33.287422 9.10965863,32.6162057 C9.11053548,32.2935282 8.98273614,31.9837812 8.75490078,31.7552914 C8.52691851,31.5266547 8.21755599,31.3983771 7.89482594,31.3983771 L7.89482594,31.401169 Z M3.26467073,9.67876898 C3.93554379,9.67876898 4.479352,9.13480163 4.479352,8.46358531 C4.479352,7.79251592 3.93554379,7.24854857 3.26467073,7.24854857 C2.59365078,7.24854857 2.04984257,7.79251592 2.04984257,8.46358531 C2.04984257,9.13480163 2.59365078,9.67876898 3.26467073,9.67876898 L3.26467073,9.67876898 Z M32.2135704,9.67876898 C32.8831214,9.67274449 33.4213476,9.12583837 33.4172579,8.45623837 C33.4132683,7.78663837 32.8682849,7.24649143 32.1987339,7.24854271 C31.5293298,7.25045878 30.9877249,7.79398531 30.9877249,8.46358531 C30.9875782,8.78787918 31.1171402,9.09865469 31.3474728,9.32685061 C31.5776585,9.55504653 31.8895183,9.68170776 32.2135704,9.67876898 L32.2135704,9.67876898 Z M12.5307101,6.26787918 C11.5667799,6.26787918 10.7852943,7.04959347 10.7852943,8.01395265 C10.7852943,8.9781649 11.5667799,9.75987918 12.5307101,9.75987918 C13.4947871,9.75987918 14.2762727,8.9781649 14.2762727,8.01395265 C14.2762727,7.04959347 13.4947871,6.26787918 12.5307101,6.26787918 L12.5307101,6.26787918 Z M17.6525255,3.61401796 C18.3588004,3.61401796 18.9954468,3.18848327 19.2654412,2.53563429 C19.5354357,1.88293224 19.3854551,1.13178122 18.8858625,0.632483265 C18.3859762,0.133479184 17.6347511,-0.0152228571 16.9826807,0.255879184 C16.3306103,0.527128163 15.9059346,1.16440163 15.9071073,1.87088327 C15.9085787,2.83421388 16.6896236,3.61401796 17.6525255,3.61401796 L17.6525255,3.61401796 Z M7.41183259,26.6409404 C6.44775554,26.6409404 5.66626996,27.4228016 5.66626996,28.3868669 C5.66626996,29.3512261 6.44775554,30.1329404 7.41183259,30.1329404 C8.37576275,30.1329404 9.15710144,29.3512261 9.15710144,28.3868669 C9.15710144,27.4236833 8.3773786,26.6425567 7.41447672,26.6409404 L7.41183259,26.6409404 Z M22.8831907,31.8006931 C22.1770626,31.79952 21.5396818,32.2240261 21.2686591,32.8764343 C20.9976364,33.5286955 21.1462949,34.2802873 21.6452999,34.7801731 C22.1443049,35.2800588 22.8952361,35.4299363 23.5477472,35.1598629 C24.2004052,34.8897894 24.6259623,34.2529567 24.6259623,33.5464751 C24.6259623,32.5854955 23.8496181,31.8052506 22.8887727,31.8006931 L22.8831907,31.8006931 Z M20.2386258,29.2864261 C20.6981159,29.2563037 21.1551086,29.3769404 21.5399756,29.629969 C22.0272289,30.1589486 22.7887367,30.3349812 23.4584346,30.0734302 C24.1282794,29.8117322 24.5689667,29.1662302 24.5689667,28.4469649 C24.5689667,27.7278465 24.1282794,27.0821976 23.4584346,26.8206465 C22.7887367,26.5590955 22.0272289,26.7349812 21.5399756,27.2639608 C21.1551086,27.5169894 20.6981159,27.6376261 20.2386258,27.6075037 C19.6353248,27.6075037 19.1214834,27.4538057 18.909219,27.2388343 C18.4702943,26.7790629 17.8155798,26.5952424 17.2015554,26.75952 C16.587531,26.9237976 16.1118825,27.409871 15.9608736,28.0276016 C15.8100116,28.6451853 16.0077334,29.2959771 16.4769185,29.7250384 L16.4349063,29.7250384 C16.6499618,29.9848261 16.8036147,30.6132833 16.8036147,31.3537078 C16.8036147,32.0939853 16.6611258,32.6721894 16.4600255,32.9487282 C15.9313476,33.4359771 15.7553664,34.1978547 16.0168409,34.8678955 C16.2784623,35.5376424 16.9237755,35.9787527 17.6428304,35.9787527 C18.3617384,35.9787527 19.0071984,35.5376424 19.2686729,34.8678955 C19.5301475,34.1978547 19.3541663,33.4359771 18.8254884,32.9487282 C18.621597,32.6693976 18.4818991,32.0632751 18.4818991,31.3537078 C18.453842,30.8162057 18.5665111,30.2809078 18.8087422,29.800418 C18.8182905,29.7736751 18.8313642,29.7482547 18.8478165,29.7250384 L18.8143243,29.7250384 C18.8422345,29.6999118 18.8645626,29.6664098 18.8896818,29.6384914 L18.8896818,29.6664098 C19.1214834,29.4373322 19.6353248,29.2836343 20.2386258,29.2836343 L20.2386258,29.2864261 Z M17.6553165,9.73181388 C18.1400726,9.73225469 18.6029412,9.52962612 18.931694,9.17315265 C19.3162672,8.91968327 19.7734069,8.79889959 20.2330438,8.82946286 C20.8361979,8.82946286 21.3500394,8.98316082 21.5623038,9.19827918 L21.5623038,9.18432 C21.9902112,9.67421388 22.6553553,9.88521796 23.2871541,9.73107918 C23.9190998,9.57708735 24.4128165,9.08396082 24.5673509,8.45197714 C24.7220322,7.82014041 24.5119712,7.15465469 24.0226613,6.72603429 C23.8076059,6.51385469 23.6539529,5.99986286 23.6539529,5.39638531 C23.6273647,4.93749551 23.7509041,4.48242612 24.0059152,4.10023837 C24.53474,3.61284245 24.7105743,2.85111184 24.4490998,2.18107102 C24.1876253,1.51117714 23.5421652,1.07021388 22.8232572,1.07021388 C22.1042023,1.07021388 21.4588891,1.51117714 21.1972677,2.18107102 C20.9357932,2.85111184 21.1117744,3.61284245 21.6404523,4.10023837 C21.8937007,4.48507102 22.0143021,4.94205061 21.9840416,5.40182204 C21.9840416,6.00529959 21.8303886,6.51943837 21.61548,6.73161796 L21.6348703,6.73161796 C21.61548,6.74836898 21.595796,6.76232816 21.5790499,6.78187102 C21.3667855,6.99698939 20.852944,7.15068735 20.2497899,7.15068735 C19.790153,7.18125061 19.3330133,7.06046694 18.9482932,6.80714449 C18.4065416,6.22188735 17.5369185,6.0792098 16.8366663,6.46036898 C16.1364141,6.84182204 15.784158,7.64983837 15.9812921,8.42258939 C16.1784263,9.19534041 16.8748592,9.73563429 17.6720626,9.73475265 L17.6553165,9.73181388 Z" id="Fill-21" fill="#C1272C"></path>
            </g>
        </g>
    </g>
</svg>