<svg id="Layer_1" data-name="Layer 1" xmlns="http://www.w3.org/2000/svg" viewBox="0 0 478.35 172.01"><title>kruhu</title><path d="M102.61,48.84,60.55,38.65a6.74,6.74,0,0,0-3.22,0L15.26,48.84A6.86,6.86,0,0,0,10,55.5v78.8a6.85,6.85,0,0,0,4.23,6.33L56.31,158a6.79,6.79,0,0,0,2.61.52,7,7,0,0,0,2.62-.51l42.07-17.37a6.85,6.85,0,0,0,4.24-6.33V55.5A6.85,6.85,0,0,0,102.61,48.84ZM101,55.5v78.8h0L58.94,151.66h0l-42-17.37V55.5L58.94,45.3,101,55.5Z" transform="translate(-10.03 -12.48)" style="fill:#ce0e2d"/><polygon points="6.85 43.02 48.91 32.82 6.85 43.02 6.85 121.82 48.9 139.19 6.85 121.82 6.85 43.02" style="fill:#ce0e2d"/><polygon points="48.91 32.83 90.97 43.02 90.97 43.02 48.91 32.82 48.91 32.83" style="fill:#ce0e2d"/><path d="M86,119.35l-8.28.05a10.45,10.45,0,0,1-1.6-2.62c-.34-.67-.67-1.32-1-1.86A53.56,53.56,0,0,1,69,100.21l.51-.47C71.35,98.09,74.7,95,75.73,95h4.48a1.37,1.37,0,0,0,1.38-1.37V81.26a1.38,1.38,0,0,0-1.38-1.38h-8.4c-4.17,0-15.27,11.3-16.52,12.59l-1,1v-35a1.39,1.39,0,0,0-.52-1.09,1.37,1.37,0,0,0-1.17-.25L40.46,60a1.37,1.37,0,0,0-1.06,1.34V133a1.38,1.38,0,0,0,1.38,1.38H53A1.37,1.37,0,0,0,54.33,133V122.17a48.74,48.74,0,0,1,3.54-7.94,67.31,67.31,0,0,0,4.38,8.54l1.07,1.76c3.7,6.13,6.11,9.85,8.49,9.85l14.21,0h0a1.37,1.37,0,0,0,1-.4,1.39,1.39,0,0,0,.41-1V120.73A1.38,1.38,0,0,0,86,119.35Z" transform="translate(-10.03 -12.48)" style="fill:#ce0e2d"/><path d="M487.32,78.58H472.86a1.05,1.05,0,0,0-1.06,1.06V127c-2.17,0-7.24.12-10.44.12-9.86,0-13.06-3.28-13.06-4.88V79.64a1.05,1.05,0,0,0-1.06-1.06H432.7a1.06,1.06,0,0,0-1.06,1c0,.45,0,45,0,49.28.08,7,7.9,15.13,29.72,15.13,10.74,0,25.95.14,25.95.14h0a1,1,0,0,0,.74-.31,1.05,1.05,0,0,0,.32-.75V79.64A1.06,1.06,0,0,0,487.32,78.58Z" transform="translate(-10.03 -12.48)" style="fill:#ce0e2d"/><path d="M355.79,78.58H341.33a1.05,1.05,0,0,0-1.06,1.06V127c-2.17,0-7.24.12-10.43.12-9.88,0-13.07-3.28-13.07-4.88V79.64a1.05,1.05,0,0,0-1.06-1.06H301.16a1.05,1.05,0,0,0-1.05,1.06c0,.44,0,44.94,0,49.27.07,7,7.9,15.13,29.73,15.13,10.73,0,25.94.14,25.94.14h0a1.06,1.06,0,0,0,1-1.06V79.64A1.05,1.05,0,0,0,355.79,78.58Z" transform="translate(-10.03 -12.48)" style="fill:#ce0e2d"/><path d="M393.39,78.73c-3.13,0-6.65,0-10.05,0l0-24.85a1,1,0,0,0-.4-.83,1.07,1.07,0,0,0-.9-.2l-14.8,3.5a1.06,1.06,0,0,0-.81,1v85.78a1.05,1.05,0,0,0,1.06,1.06H381.9a.94.94,0,0,0,.49-.15h.07a1.06,1.06,0,0,0,1.06-1.06.92.92,0,0,0-.06-.33l-.09-46.91c2.35,0,7-.13,10-.13,9.87,0,13.06,3.3,13.06,4.89v42.63a1.06,1.06,0,0,0,1.06,1.06h14.55a1.06,1.06,0,0,0,1.06-1.06c0-.45.05-44.95,0-49.27C423.05,86.87,415.22,78.73,393.39,78.73Z" transform="translate(-10.03 -12.48)" style="fill:#ce0e2d"/><path d="M290.64,78.7l-13,0c-21.82,0-29.64,8.14-29.72,15.12-.05,4.32,0,48.82,0,49.27a1.05,1.05,0,0,0,1.06,1.06h14.55a1.05,1.05,0,0,0,1.05-1.06V100.49c0-1.59,3.2-4.89,13.06-4.89,3.15,0,10.73.09,12.94.13a1.2,1.2,0,0,0,.76-.3,1,1,0,0,0,.32-.75V79.75a1.06,1.06,0,0,0-.31-.75C291.19,78.81,290.87,78.62,290.64,78.7Z" transform="translate(-10.03 -12.48)" style="fill:#ce0e2d"/><path d="M238.76,127.34H228.62c-.55-.16-1.63-2.28-2.21-3.42-.39-.77-.78-1.54-1.16-2.17a64.5,64.5,0,0,1-7.46-18.09l.86-.8c2.55-2.34,6.4-5.88,7.8-5.88h5.36a1.06,1.06,0,0,0,1.06-1.06V81.19a1.07,1.07,0,0,0-1.06-1.06H221.76C216.93,80.13,203,94.4,202.43,95s-1.45,1.53-2.16,2.33V53.91a1.07,1.07,0,0,0-.4-.83,1.09,1.09,0,0,0-.9-.2l-14.56,3.5a1,1,0,0,0-.81,1v85.64a1.06,1.06,0,0,0,1.06,1.06h14.55a1.06,1.06,0,0,0,1.06-1.06V130a59.93,59.93,0,0,1,4.9-10.75,80,80,0,0,0,5.66,11.25l1.29,2.12c4.18,6.94,7.11,11.48,9.64,11.48l17,.05h0a1.06,1.06,0,0,0,1.06-1.06V128.39A1.05,1.05,0,0,0,238.76,127.34Z" transform="translate(-10.03 -12.48)" style="fill:#ce0e2d"/><rect x="135.16" width="2.6" height="172.01" style="fill:#666"/></svg>