<?xml version="1.0" encoding="utf-8"?>
<!-- Generator: Adobe Illustrator 18.0.0, SVG Export Plug-In . SVG Version: 6.00 Build 0)  -->
<!DOCTYPE svg PUBLIC "-//W3C//DTD SVG 1.1 Basic//EN" "http://www.w3.org/Graphics/SVG/1.1/DTD/svg11-basic.dtd">
<svg version="1.1" baseProfile="basic" id="Layer_1"
	 xmlns="http://www.w3.org/2000/svg" xmlns:xlink="http://www.w3.org/1999/xlink" x="0px" y="0px" viewBox="0 600 612 192"
	 xml:space="preserve">
<g>
	<g id="Layer_4">
		<g>
			<path fill="#EF7D22" d="M611.9,724.4c-0.8-3-14.9-32.1-72.1-58.8c-28.7-13.4-61.3-19.1-92.3-23.9c-42.5-6.6-85.4-10.5-128.5-9.6
				c-32.6,0.7-65,2.1-97.4,6.9c-30.9,4.6-61.8,11.8-90.4,24.6c-15.8,7-32,15.1-46.5,24.4c-1.8,1.1-3.6,2.4-5.5,3.6
				c-0.2-0.4-0.3-0.8-0.5-1.1C70,667.7,58.5,660.4,49,653.8c-9.5-6.5-29.3-12-29.3-12c3.9,1.7,7.5,3.7,11.2,5.9
				c6.5,4,12.6,8.7,18,14.1c9.4,9.6,18.5,21.5,22.5,34.6c0,0.2,0.1,0.2,0.1,0.4c-21,14.7-41.2,32.1-56.2,52.2
				C7.8,758.8,3,769.3,0,780.9c4.5-0.5,10.1-2.1,15.9-3.6c0.1,0,0.1-0.1,0.2-0.1c1.5-3.8,5.1-12.3,10.3-23.9
				c5-11.3,13.7-21.8,22.3-30.4c7.3-7.4,15.4-14.4,23.8-20.8c3.7,18.3-0.3,39.9-6.6,56.8c-1.5,4.1-3.3,8.1-5.2,12.2
				c-0.4,0.8-3.3,5.3-3,6.1l6.1,14.9c9.1-4.2,15.7-43.1,15.7-43.1s6.8-30,1.1-52.6c15.1-10.7,31.3-19.7,47.5-27.1
				c32.1-14.6,66.9-21.4,101.5-26.6c12.6-1.9,25.1-3.2,37.7-3.9c67.9-3.8,137.5,2.7,137.5,2.7s90.1,8.7,142,37
				c51.8,28.2,51.5,50,56.9,50.7C608.9,729.8,612.6,727.4,611.9,724.4z"/>
			<path fill="#EF7D22" d="M145.1,640.5c11.2,0,20.2-9,20.2-20.2s-9-20.3-20.2-20.3s-20.2,9-20.2,20.2
				C124.9,631.4,133.9,640.5,145.1,640.5z"/>
		</g>
	</g>
	<g id="Layer_5">
		<g>
			<g>
				<path d="M132.9,656.2h29.9v122.2h-29.9V656.2z"/>
				<path d="M163.2,778.8h-30.6V655.8h30.6V778.8z M133.3,777.9h29.1V656.5h-29.1V777.9z"/>
			</g>
			<g>
				<path d="M225.9,693.8c-2.1-2.5-4.7-4.7-7.8-6.5c-3.1-1.7-6.2-2.7-9.5-2.7H207v93.7h-29V656.2h30.5c8.1,0,15,1.3,20.5,4
					c5.5,2.7,10.9,6.8,16,12.6l59.1,68.1c2.1,2.4,4.7,4.6,7.7,6.4s6.2,2.7,9.4,2.7h1.5v-93.8h29.1v122.2h-30.6
					c-8.4,0-15.6-1.4-21.4-4.1c-5.9-2.7-11.3-7.1-16.3-13.2L225.9,693.8z"/>
				<path d="M352.4,778.8h-31c-8.4,0-15.8-1.4-21.6-4.1c-5.9-2.7-11.4-7.1-16.4-13.2l-57.7-67.3c-2.1-2.5-4.7-4.6-7.7-6.4
					c-3-1.7-6.2-2.6-9.3-2.6h-1.1v93.7h-29.7v-123h30.9c8.1,0,15.1,1.4,20.7,4c5.5,2.7,11,6.8,16.1,12.6l59.1,68.1
					c2.1,2.4,4.6,4.5,7.7,6.3c3,1.7,6.1,2.7,9.2,2.7h1.1v-93.7h29.9L352.4,778.8L352.4,778.8z M206.6,684.2h1.9
					c3.3,0,6.5,0.9,9.6,2.7c3.1,1.8,5.8,4,7.9,6.5l57.7,67.3c4.9,5.9,10.3,10.3,16.1,13.1c5.8,2.7,12.9,4.1,21.3,4.1h30.3V656.7H323
					v93.7h-1.9c-3.3,0-6.5-0.9-9.6-2.8c-3-1.8-5.7-4-7.8-6.5l-59.1-68.1c-5-5.6-10.3-9.8-15.8-12.5c-5.5-2.6-12.3-4-20.4-4h-30.1
					v121.5h28.2L206.6,684.2L206.6,684.2z"/>
			</g>
			<g>
				<path d="M538.9,749.9v28.4H404.1c-24.5,0-36.8-10-36.8-29.9V686c0-19.9,12.3-29.7,36.8-29.7h134.3v28.4H404.1
					c-4.6,0-6.8,2-6.8,5.9V703h140.3v28.4H397.2V744c0,4,2.3,6.1,6.8,6.1h134.8v-0.2H538.9z"/>
				<path d="M539.3,778.8H404.1c-24.6,0-37.2-10.2-37.2-30.3V686c0-20,12.6-30.1,37.2-30.1h134.7V685H404.1c-4.3,0-6.5,1.8-6.5,5.5
					v12.1h140.3v29.1H397.6V744c0,3.8,2.1,5.7,6.5,5.7h135.2V778.8L539.3,778.8L539.3,778.8z M404.1,656.5
					c-24.2,0-36.4,9.9-36.4,29.4v62.4c0,19.6,12.3,29.5,36.4,29.5h134.4v-27.6H404.1c-4.8,0-7.2-2.2-7.2-6.5v-12.9h140.3v-27.6
					H396.8v-12.8c0-4.2,2.4-6.3,7.2-6.3h133.9v-27.6C538,656.5,404.1,656.5,404.1,656.5z"/>
			</g>
		</g>
	</g>
</g>
</svg>
