<svg version="1.1" xmlns="http://www.w3.org/2000/svg" xmlns:xlink="http://www.w3.org/1999/xlink" x="0px" y="0px" viewBox="0 0 823 122.5" style="enable-background:new 0 0 823 122.5;" xml:space="preserve">
<style>
    .Drop_x0020_Shadow{fill:none;}
    .Outer_x0020_Glow_x0020_5_x0020_pt{fill:none;}
    .Blue_x0020_Neon{fill:none;stroke:#8AACDA;stroke-width:7;stroke-linecap:round;stroke-linejoin:round;}
    .Chrome_x0020_Highlight{fill:url(#SVGID_1_watermark);stroke:#FFFFFF;stroke-width:0.3629;stroke-miterlimit:1;}
    .Jive_GS{fill:#FFDD00;}
    .Alyssa_GS{fill:#A6D0E4;}
    .st0{fill:url(#SVGID_2_watermark);}
    .st1{fill:#252626;}
</style>
<linearGradient id="SVGID_1_watermark" gradientUnits="userSpaceOnUse" x1="-308.9682" y1="-747.7742" x2="-308.9682" y2="-748.7742">
    <stop offset="0" style="stop-color:#656565"></stop>
    <stop offset="0.618" style="stop-color:#1B1B1B"></stop>
    <stop offset="0.6292" style="stop-color:#545454"></stop>
    <stop offset="0.9831" style="stop-color:#3E3E3E"></stop>
</linearGradient>
<g>
    <g>
        <linearGradient id="SVGID_2_watermark" gradientUnits="userSpaceOnUse" x1="0" y1="61.2493" x2="224.7297" y2="61.2493">
            <stop offset="6.716358e-03" style="stop-color:#00AEEF"></stop>
            <stop offset="1.120150e-02" style="stop-color:#00AFEE"></stop>
            <stop offset="0.2473" style="stop-color:#09C9D4"></stop>
            <stop offset="0.488" style="stop-color:#10DBC1"></stop>
            <stop offset="0.7359" style="stop-color:#14E6B6"></stop>
            <stop offset="1" style="stop-color:#15EAB2"></stop>
        </linearGradient>
        <path class="st0" d="M9.2,122.5L0,112.3l56.8-56.8l9.7,9.7L37.9,93.8c12.2-3.6,27.2-6.4,44.6-6.4c18.3,0,34,3,46.8,6.8L73.6,38.7
            L112.3,0l112.5,112.6l-9.7,9.7L112.3,19.4L93.1,38.7l73.4,73.4l-9,10.3c-0.3-0.2-28.9-21.2-75-21.2
            C36.2,101.2,9.4,122.3,9.2,122.5z"></path>
    </g>
    <g>
        <path class="st1" d="M279.6,28.7h9.4l22.4,51.6h-12.8l-4.4-10.9h-20l-4.3,10.9h-12.5L279.6,28.7z M284,43.7l-6.3,16h12.6L284,43.7
            z"></path>
        <path class="st1" d="M330.9,38.7h-14.7V28.7H357v10.1h-14.7v41.5h-11.4V38.7z"></path>
        <path class="st1" d="M372.1,28.7h11.4v41.1h21.1v10.5h-32.4V28.7z"></path>
        <path class="st1" d="M439.9,28.7h9.4l22.4,51.6h-12.8l-4.4-10.9h-20l-4.3,10.9h-12.5L439.9,28.7z M444.3,43.7l-6.3,16h12.6
            L444.3,43.7z"></path>
        <path class="st1" d="M486.8,28.7h15.4l21.9,35.8h0.1V28.7h11.4v51.6h-14.9l-22.5-36.7h-0.1v36.7h-11.4V28.7z"></path>
        <path class="st1" d="M565.5,38.7h-14.7V28.7h40.8v10.1h-14.7v41.5h-11.4V38.7z"></path>
        <path class="st1" d="M606.6,28.7h11.4v51.6h-11.4V28.7z"></path>
        <path class="st1" d="M669.5,42.1c-1.1-1.4-2.5-2.4-4.1-3.1c-1.6-0.7-3.5-1.1-5.6-1.1c-2.1,0-4.1,0.4-5.9,1.2
            c-1.8,0.8-3.4,2-4.7,3.5c-1.3,1.5-2.4,3.2-3.1,5.3c-0.8,2-1.1,4.3-1.1,6.6c0,2.4,0.4,4.7,1.1,6.7c0.8,2,1.8,3.8,3.1,5.2
            c1.3,1.5,2.9,2.6,4.6,3.5c1.8,0.8,3.7,1.2,5.7,1.2c2.3,0,4.4-0.5,6.2-1.5c1.8-1,3.3-2.3,4.4-4.1l9.5,7.1c-2.2,3.1-5,5.3-8.3,6.8
            c-3.4,1.5-6.8,2.2-10.3,2.2c-4,0-7.7-0.6-11.1-1.9c-3.4-1.3-6.3-3.1-8.8-5.4c-2.5-2.4-4.4-5.2-5.8-8.6c-1.4-3.4-2.1-7.1-2.1-11.2
            c0-4.1,0.7-7.9,2.1-11.2c1.4-3.4,3.3-6.2,5.8-8.6c2.5-2.4,5.4-4.2,8.8-5.4c3.4-1.3,7.1-1.9,11.1-1.9c1.5,0,3,0.1,4.6,0.4
            c1.6,0.3,3.1,0.7,4.7,1.3c1.5,0.6,3,1.4,4.4,2.3c1.4,1,2.7,2.2,3.8,3.6L669.5,42.1z"></path>
        <path class="st1" d="M728.6,28.7h19.2c2.2,0,4.5,0.2,6.7,0.5c2.3,0.3,4.3,0.9,6.1,1.9c1.8,0.9,3.3,2.3,4.4,4
            c1.1,1.7,1.7,4,1.7,6.8c0,2.9-0.8,5.3-2.4,7.2c-1.6,1.9-3.8,3.3-6.4,4.1v0.1c1.7,0.2,3.2,0.7,4.6,1.4c1.4,0.7,2.6,1.6,3.6,2.7
            c1,1.1,1.8,2.4,2.3,3.8c0.5,1.5,0.8,3,0.8,4.7c0,2.7-0.6,5-1.7,6.8s-2.7,3.3-4.5,4.4c-1.8,1.1-3.9,1.9-6.2,2.4
            c-2.3,0.5-4.6,0.7-6.9,0.7h-21.1V28.7z M739.9,49.3h8.2c0.9,0,1.7-0.1,2.6-0.3c0.8-0.2,1.6-0.5,2.3-0.9c0.7-0.4,1.2-1,1.6-1.7
            c0.4-0.7,0.6-1.6,0.6-2.6c0-1.1-0.2-2-0.7-2.7c-0.5-0.7-1.1-1.2-1.8-1.6c-0.7-0.4-1.6-0.7-2.5-0.8c-0.9-0.2-1.8-0.3-2.7-0.3h-7.7
            V49.3z M739.9,70.6h10.2c0.9,0,1.8-0.1,2.7-0.3c0.9-0.2,1.7-0.5,2.4-1c0.7-0.5,1.3-1.1,1.8-1.9c0.5-0.8,0.7-1.7,0.7-2.8
            c0-1.2-0.3-2.2-0.9-3c-0.6-0.8-1.4-1.3-2.3-1.7c-0.9-0.4-1.9-0.7-3-0.8c-1.1-0.1-2.1-0.2-3-0.2h-8.6V70.6z"></path>
        <path class="st1" d="M796.9,38.7h-14.7V28.7H823v10.1h-14.7v41.5h-11.4V38.7z"></path>
    </g>
</g>
</svg>